{
  "accessors": [
    {
      "bufferView": 1,
      "componentType": 5126,
      "count": 65532,
      "max": [
        6.310765266418457,
        3.6171875,
        2.2594170570373535
      ],
      "min": [
        4.071556091308594,
        2.5376038551330566,
        0.4557199478149414
      ],
      "type": "VEC3"
    },
    {
      "bufferView": 1,
      "byteOffset": 786384,
      "componentType": 5126,
      "count": 65532,
      "max": [
        0.9999567270278931,
        0.9968066811561584,
        0.9999957084655762
      ],
      "min": [
        -0.9999448657035828,
        -0.9999946355819702,
        -0.9999634027481079
      ],
      "type": "VEC3"
    },
    {
      "bufferView": 0,
      "componentType": 5125,
      "count": 362640,
      "type": "SCALAR"
    },
    {
      "bufferView": 1,
      "byteOffset": 1572768,
      "componentType": 5126,
      "count": 65532,
      "max": [
        6.325817108154297,
        3.669285774230957,
        2.2858901023864746
      ],
      "min": [
        4.073435306549072,
        2.9331717491149902,
        0.4557199478149414
      ],
      "type": "VEC3"
    },
    {
      "bufferView": 1,
      "byteOffset": 2359152,
      "componentType": 5126,
      "count": 65532,
      "max": [
        0.9999580383300781,
        0.9998063445091248,
        0.9999669194221497
      ],
      "min": [
        -0.9999448657035828,
        -0.9999875426292419,
        -0.9999127984046936
      ],
      "type": "VEC3"
    },
    {
      "bufferView": 0,
      "byteOffset": 1450560,
      "componentType": 5125,
      "count": 347364,
      "type": "SCALAR"
    },
    {
      "bufferView": 1,
      "byteOffset": 3145536,
      "componentType": 5126,
      "count": 12509,
      "max": [
        6.194896221160889,
        3.6494555473327637,
        2.2843852043151855
      ],
      "min": [
        4.305955410003662,
        2.916764736175537,
        0.529177188873291
      ],
      "type": "VEC3"
    },
    {
      "bufferView": 1,
      "byteOffset": 3295644,
      "componentType": 5126,
      "count": 12509,
      "max": [
        0.9998556971549988,
        0.9874855279922485,
        0.9999794363975525
      ],
      "min": [
        -0.9992896318435669,
        -0.9999710321426392,
        -0.9998921155929565
      ],
      "type": "VEC3"
    },
    {
      "bufferView": 0,
      "byteOffset": 2840016,
      "componentType": 5125,
      "count": 45441,
      "type": "SCALAR"
    },
    {
      "bufferView": 1,
      "byteOffset": 3445752,
      "componentType": 5126,
      "count": 65532,
      "max": [
        6.411008358001709,
        3.286691665649414,
        2.618567943572998
      ],
      "min": [
        3.962373971939087,
        2.3018736839294434,
        0.28342390060424805
      ],
      "type": "VEC3"
    },
    {
      "bufferView": 1,
      "byteOffset": 4232136,
      "componentType": 5126,
      "count": 65532,
      "max": [
        0.9999985694885254,
        0.9999920129776001,
        0.9999915957450867
      ],
      "min": [
        -0.9999989867210388,
        -0.9995413422584534,
        -0.9992758631706238
      ],
      "type": "VEC3"
    },
    {
      "bufferView": 0,
      "byteOffset": 3021780,
      "componentType": 5125,
      "count": 357021,
      "type": "SCALAR"
    },
    {
      "bufferView": 1,
      "byteOffset": 5018520,
      "componentType": 5126,
      "count": 65532,
      "max": [
        6.498085975646973,
        3.335226535797119,
        2.3473501205444336
      ],
      "min": [
        3.7855618000030518,
        2.127408504486084,
        0.0
      ],
      "type": "VEC3"
    },
    {
      "bufferView": 1,
      "byteOffset": 5804904,
      "componentType": 5126,
      "count": 65532,
      "max": [
        0.9999701976776123,
        0.9999836683273315,
        0.9996119737625122
      ],
      "min": [
        -0.9999682903289795,
        -0.9997734427452087,
        -0.9997842311859131
      ],
      "type": "VEC3"
    },
    {
      "bufferView": 0,
      "byteOffset": 4449864,
      "componentType": 5125,
      "count": 333564,
      "type": "SCALAR"
    },
    {
      "bufferView": 1,
      "byteOffset": 6591288,
      "componentType": 5126,
      "count": 65532,
      "max": [
        6.506108283996582,
        3.302102565765381,
        2.592597007751465
      ],
      "min": [
        3.8117311000823975,
        2.0324974060058594,
        0.0008711814880371094
      ],
      "type": "VEC3"
    },
    {
      "bufferView": 1,
      "byteOffset": 7377672,
      "componentType": 5126,
      "count": 65532,
      "max": [
        0.9999288320541382,
        0.9999859929084778,
        0.9999942183494568
      ],
      "min": [
        -0.9999806880950928,
        -0.9997734427452087,
        -0.9997842311859131
      ],
      "type": "VEC3"
    },
    {
      "bufferView": 0,
      "byteOffset": 5784120,
      "componentType": 5125,
      "count": 313278,
      "type": "SCALAR"
    },
    {
      "bufferView": 1,
      "byteOffset": 8164056,
      "componentType": 5126,
      "count": 24993,
      "max": [
        6.464546203613281,
        3.332622528076172,
        2.414309024810791
      ],
      "min": [
        4.050553321838379,
        2.0379209518432617,
        0.3222079277038574
      ],
      "type": "VEC3"
    },
    {
      "bufferView": 1,
      "byteOffset": 8463972,
      "componentType": 5126,
      "count": 24993,
      "max": [
        0.9997054934501648,
        0.9999903440475464,
        0.9996713399887085
      ],
      "min": [
        -0.9999789595603943,
        -0.9986470937728882,
        -0.9768454432487488
      ],
      "type": "VEC3"
    },
    {
      "bufferView": 0,
      "byteOffset": 7037232,
      "componentType": 5125,
      "count": 113328,
      "type": "SCALAR"
    },
    {
      "bufferView": 1,
      "byteOffset": 8763888,
      "componentType": 5126,
      "count": 65532,
      "max": [
        2.4450619220733643,
        4.150892734527588,
        1.9874839782714844
      ],
      "min": [
        0.24489301443099976,
        2.4070706367492676,
        0.7732691764831543
      ],
      "type": "VEC3"
    },
    {
      "bufferView": 1,
      "byteOffset": 9550272,
      "componentType": 5126,
      "count": 65532,
      "max": [
        0.9997962713241577,
        0.9998258948326111,
        0.9999483227729797
      ],
      "min": [
        -0.999981701374054,
        -0.9999832510948181,
        -0.9919304251670837
      ],
      "type": "VEC3"
    },
    {
      "bufferView": 0,
      "byteOffset": 7490544,
      "componentType": 5125,
      "count": 362640,
      "type": "SCALAR"
    },
    {
      "bufferView": 1,
      "byteOffset": 10336656,
      "componentType": 5126,
      "count": 65532,
      "max": [
        2.475651979446411,
        4.175417900085449,
        1.6739320755004883
      ],
      "min": [
        0.24489301443099976,
        2.35807466506958,
        0.7774162292480469
      ],
      "type": "VEC3"
    },
    {
      "bufferView": 1,
      "byteOffset": 11123040,
      "componentType": 5126,
      "count": 65532,
      "max": [
        0.9999881982803345,
        0.9998888373374939,
        0.9999170303344727
      ],
      "min": [
        -0.9999544620513916,
        -0.9999871253967285,
        -0.9995546936988831
      ],
      "type": "VEC3"
    },
    {
      "bufferView": 0,
      "byteOffset": 8941104,
      "componentType": 5125,
      "count": 347364,
      "type": "SCALAR"
    },
    {
      "bufferView": 1,
      "byteOffset": 11909424,
      "componentType": 5126,
      "count": 12509,
      "max": [
        2.3236770629882813,
        4.175100803375244,
        1.6577363014221191
      ],
      "min": [
        0.5417789816856384,
        2.3594398498535156,
        0.9401512145996094
      ],
      "type": "VEC3"
    },
    {
      "bufferView": 1,
      "byteOffset": 12059532,
      "componentType": 5126,
      "count": 12509,
      "max": [
        0.9998655915260315,
        0.9998888373374939,
        0.9989892840385437
      ],
      "min": [
        -0.9993933439254761,
        -0.9999014139175415,
        -0.9791256785392761
      ],
      "type": "VEC3"
    },
    {
      "bufferView": 0,
      "byteOffset": 10330560,
      "componentType": 5125,
      "count": 45441,
      "type": "SCALAR"
    },
    {
      "bufferView": 1,
      "byteOffset": 12209640,
      "componentType": 5126,
      "count": 65532,
      "max": [
        2.62544584274292,
        2.162752628326416,
        2.1795620918273926
      ],
      "min": [
        0.17680901288986206,
        0.0,
        0.9479842185974121
      ],
      "type": "VEC3"
    },
    {
      "bufferView": 1,
      "byteOffset": 12996024,
      "componentType": 5126,
      "count": 65532,
      "max": [
        0.9999985098838806,
        0.9998483657836914,
        0.9999505281448364
      ],
      "min": [
        -0.999998927116394,
        -0.9999987483024597,
        -0.998863160610199
      ],
      "type": "VEC3"
    },
    {
      "bufferView": 0,
      "byteOffset": 10512324,
      "componentType": 5125,
      "count": 357021,
      "type": "SCALAR"
    },
    {
      "bufferView": 1,
      "byteOffset": 13782408,
      "componentType": 5126,
      "count": 65532,
      "max": [
        2.7125189304351807,
        2.340003490447998,
        2.0319252014160156
      ],
      "min": [
        0.0,
        0.06977081298828125,
        0.7347559928894043
      ],
      "type": "VEC3"
    },
    {
      "bufferView": 1,
      "byteOffset": 14568792,
      "componentType": 5126,
      "count": 65532,
      "max": [
        0.9999706149101257,
        0.9999135732650757,
        0.9999985694885254
      ],
      "min": [
        -0.9999687075614929,
        -0.9999839067459106,
        -0.9999365210533142
      ],
      "type": "VEC3"
    },
    {
      "bufferView": 0,
      "byteOffset": 11940408,
      "componentType": 5125,
      "count": 333543,
      "type": "SCALAR"
    },
    {
      "bufferView": 1,
      "byteOffset": 15355176,
      "componentType": 5126,
      "count": 65532,
      "max": [
        2.7205450534820557,
        2.34908390045166,
        2.1439719200134277
      ],
      "min": [
        0.026169002056121826,
        0.02944183349609375,
        0.6906743049621582
      ],
      "type": "VEC3"
    },
    {
      "bufferView": 1,
      "byteOffset": 16141560,
      "componentType": 5126,
      "count": 65532,
      "max": [
        0.9999277591705322,
        0.999856173992157,
        0.9999870657920837
      ],
      "min": [
        -0.9999805092811584,
        -0.9999980330467224,
        -0.9999672770500183
      ],
      "type": "VEC3"
    },
    {
      "bufferView": 0,
      "byteOffset": 13274580,
      "componentType": 5125,
      "count": 313263,
      "type": "SCALAR"
    },
    {
      "bufferView": 1,
      "byteOffset": 16927944,
      "componentType": 5126,
      "count": 24997,
      "max": [
        2.6789839267730713,
        2.130819797515869,
        1.890286922454834
      ],
      "min": [
        0.26498401165008545,
        0.03034496307373047,
        0.9918451309204102
      ],
      "type": "VEC3"
    },
    {
      "bufferView": 1,
      "byteOffset": 17227908,
      "componentType": 5126,
      "count": 24997,
      "max": [
        0.9997026920318604,
        0.999917209148407,
        0.9999259114265442
      ],
      "min": [
        -0.99997878074646,
        -0.9999980330467224,
        -0.9882247447967529
      ],
      "type": "VEC3"
    },
    {
      "bufferView": 0,
      "byteOffset": 14527632,
      "componentType": 5125,
      "count": 113364,
      "type": "SCALAR"
    }
  ],
  "asset": {
    "extras": {
      "author": "drpcnaidu (https://sketchfab.com/drpcnaidu)",
      "license": "CC-BY-4.0 (http://creativecommons.org/licenses/by/4.0/)",
      "source": "https://sketchfab.com/3d-models/ortho-study-models-sr12-ef47849bd84d47628cb4f7cd699b524a",
      "title": "Ortho Study Models sr12"
    },
    "generator": "Sketchfab-12.64.0",
    "version": "2.0"
  },
  "bufferViews": [
    {
      "buffer": 0,
      "byteLength": 14981088,
      "name": "floatBufferViews",
      "target": 34963
    },
    {
      "buffer": 0,
      "byteLength": 17527872,
      "byteOffset": 14981088,
      "byteStride": 12,
      "name": "floatBufferViews",
      "target": 34962
    }
  ],
  "buffers": [
    {
      "byteLength": 32508960,
      "uri": "scene.bin"
    }
  ],
  "materials": [
    {
      "doubleSided": true,
      "name": "material",
      "pbrMetallicRoughness": {
        "metallicFactor": 0.0,
        "roughnessFactor": 0.6
      }
    },
    {
      "doubleSided": true,
      "name": "material_1",
      "pbrMetallicRoughness": {
        "metallicFactor": 0.0,
        "roughnessFactor": 0.6
      }
    },
    {
      "doubleSided": true,
      "name": "material_2",
      "pbrMetallicRoughness": {
        "metallicFactor": 0.0,
        "roughnessFactor": 0.6
      }
    },
    {
      "doubleSided": true,
      "name": "material_3",
      "pbrMetallicRoughness": {
        "metallicFactor": 0.0,
        "roughnessFactor": 0.6
      }
    }
  ],
  "meshes": [
    {
      "name": "Object_0",
      "primitives": [
        {
          "attributes": {
            "NORMAL": 1,
            "POSITION": 0
          },
          "indices": 2,
          "material": 0,
          "mode": 4
        }
      ]
    },
    {
      "name": "Object_1",
      "primitives": [
        {
          "attributes": {
            "NORMAL": 4,
            "POSITION": 3
          },
          "indices": 5,
          "material": 0,
          "mode": 4
        }
      ]
    },
    {
      "name": "Object_2",
      "primitives": [
        {
          "attributes": {
            "NORMAL": 7,
            "POSITION": 6
          },
          "indices": 8,
          "material": 0,
          "mode": 4
        }
      ]
    },
    {
      "name": "Object_3",
      "primitives": [
        {
          "attributes": {
            "NORMAL": 10,
            "POSITION": 9
          },
          "indices": 11,
          "material": 1,
          "mode": 4
        }
      ]
    },
    {
      "name": "Object_4",
      "primitives": [
        {
          "attributes": {
            "NORMAL": 13,
            "POSITION": 12
          },
          "indices": 14,
          "material": 1,
          "mode": 4
        }
      ]
    },
    {
      "name": "Object_5",
      "primitives": [
        {
          "attributes": {
            "NORMAL": 16,
            "POSITION": 15
          },
          "indices": 17,
          "material": 1,
          "mode": 4
        }
      ]
    },
    {
      "name": "Object_6",
      "primitives": [
        {
          "attributes": {
            "NORMAL": 19,
            "POSITION": 18
          },
          "indices": 20,
          "material": 1,
          "mode": 4
        }
      ]
    },
    {
      "name": "Object_7",
      "primitives": [
        {
          "attributes": {
            "NORMAL": 22,
            "POSITION": 21
          },
          "indices": 23,
          "material": 2,
          "mode": 4
        }
      ]
    },
    {
      "name": "Object_8",
      "primitives": [
        {
          "attributes": {
            "NORMAL": 25,
            "POSITION": 24
          },
          "indices": 26,
          "material": 2,
          "mode": 4
        }
      ]
    },
    {
      "name": "Object_9",
      "primitives": [
        {
          "attributes": {
            "NORMAL": 28,
            "POSITION": 27
          },
          "indices": 29,
          "material": 2,
          "mode": 4
        }
      ]
    },
    {
      "name": "Object_10",
      "primitives": [
        {
          "attributes": {
            "NORMAL": 31,
            "POSITION": 30
          },
          "indices": 32,
          "material": 3,
          "mode": 4
        }
      ]
    },
    {
      "name": "Object_11",
      "primitives": [
        {
          "attributes": {
            "NORMAL": 34,
            "POSITION": 33
          },
          "indices": 35,
          "material": 3,
          "mode": 4
        }
      ]
    },
    {
      "name": "Object_12",
      "primitives": [
        {
          "attributes": {
            "NORMAL": 37,
            "POSITION": 36
          },
          "indices": 38,
          "material": 3,
          "mode": 4
        }
      ]
    },
    {
      "name": "Object_13",
      "primitives": [
        {
          "attributes": {
            "NORMAL": 40,
            "POSITION": 39
          },
          "indices": 41,
          "material": 3,
          "mode": 4
        }
      ]
    }
  ],
  "nodes": [
    {
      "children": [
        1
      ],
      "matrix": [
        -1.0,
        -1.1102230246251562e-16,
        -1.7225464509177407e-16,
        0.0,
        1.1102230246251565e-16,
        -1.0,
        0.0,
        0.0,
        -1.7225464509177405e-16,
        0.0,
        1.0,
        0.0,
        7.181766033172607,
        -2.80185341835022,
        2.8018534183502193,
        1.0
      ],
      "name": "Sketchfab_model"
    },
    {
      "children": [
        2,
        3,
        4,
        5,
        6,
        7,
        8,
        9,
        10,
        11,
        12,
        13,
        14,
        15
      ],
      "matrix": [
        1.0,
        0.0,
        0.0,
        0.0,
        0.0,
        1.0,
        0.0,
        0.0,
        0.0,
        0.0,
        1.0,
        0.0,
        0.31355398893356323,
        -10.087044715881348,
        3.929555892944336,
        1.0
      ],
      "name": "12.obj.cleaner.gles"
    },
    {
      "mesh": 0,
      "name": "Object_2"
    },
    {
      "mesh": 1,
      "name": "Object_3"
    },
    {
      "mesh": 2,
      "name": "Object_4"
    },
    {
      "mesh": 3,
      "name": "Object_5"
    },
    {
      "mesh": 4,
      "name": "Object_6"
    },
    {
      "mesh": 5,
      "name": "Object_7"
    },
    {
      "mesh": 6,
      "name": "Object_8"
    },
    {
      "mesh": 7,
      "name": "Object_9"
    },
    {
      "mesh": 8,
      "name": "Object_10"
    },
    {
      "mesh": 9,
      "name": "Object_11"
    },
    {
      "mesh": 10,
      "name": "Object_12"
    },
    {
      "mesh": 11,
      "name": "Object_13"
    },
    {
      "mesh": 12,
      "name": "Object_14"
    },
    {
      "mesh": 13,
      "name": "Object_15"
    }
  ],
  "scene": 0,
  "scenes": [
    {
      "name": "Sketchfab_Scene",
      "nodes": [
        0
      ]
    }
  ]
}
